<svg width="118" height="79" viewBox="0 0 118 79" fill="none" xmlns="http://www.w3.org/2000/svg">
<path d="M10.68 29.48C8.28 29.48 6.22667 29.0667 4.52 28.24C2.84 27.4133 1.46667 26.32 0.4 24.96L3.56 21.68C4.6 22.88 5.72 23.7733 6.92 24.36C8.14667 24.92 9.45333 25.2 10.84 25.2C12.44 25.2 13.6667 24.84 14.52 24.12C15.3733 23.4 15.8 22.36 15.8 21C15.8 19.88 15.48 19.04 14.84 18.48C14.2 17.8933 13.12 17.48 11.6 17.24L8.64 16.76C6.05333 16.3067 4.21333 15.3733 3.12 13.96C2.02667 12.52 1.48 10.8267 1.48 8.88C1.48 6.21333 2.34667 4.17333 4.08 2.76C5.81333 1.32 8.21333 0.599998 11.28 0.599998C13.4667 0.599998 15.3467 0.946665 16.92 1.64C18.52 2.33333 19.8 3.28 20.76 4.48L17.68 7.76C16.9333 6.88 16.04 6.18667 15 5.68C13.96 5.14667 12.7333 4.88 11.32 4.88C8.28 4.88 6.76 6.13333 6.76 8.64C6.76 9.70667 7.08 10.52 7.72 11.08C8.36 11.64 9.45333 12.0533 11 12.32L13.92 12.84C16.3467 13.2933 18.1467 14.1867 19.32 15.52C20.4933 16.8533 21.08 18.56 21.08 20.64C21.08 21.9467 20.8533 23.1467 20.4 24.24C19.9467 25.3067 19.28 26.24 18.4 27.04C17.52 27.8133 16.4267 28.4133 15.12 28.84C13.84 29.2667 12.36 29.48 10.68 29.48ZM34.1844 29V1.08H44.7844C47.5044 1.08 49.5844 1.85333 51.0244 3.4C52.4644 4.94667 53.1844 7.05333 53.1844 9.72C53.1844 12.3867 52.4644 14.4933 51.0244 16.04C49.5844 17.5867 47.5044 18.36 44.7844 18.36H39.4244V29H34.1844ZM39.4244 14.08H43.7044C45.1177 14.08 46.131 13.8 46.7444 13.24C47.3577 12.6533 47.6644 11.7333 47.6644 10.48V8.96C47.6644 7.70667 47.3577 6.8 46.7444 6.24C46.131 5.65333 45.1177 5.36 43.7044 5.36H39.4244V14.08ZM66.9688 29V1.08H72.2088V24.68H84.5688V29H66.9688ZM109.553 5.4V29H104.353V5.4H95.9531V1.08H117.953V5.4H109.553ZM13.6 55.4V79H8.4V55.4H1.49012e-08V51.08H22V55.4H13.6ZM45.5844 55.4V79H40.3844V55.4H31.9844V51.08H53.9844V55.4H45.5844ZM66.2888 79V51.08H83.9288V55.4H71.5288V62.68H83.4888V67H71.5288V74.68H83.9288V79H66.2888ZM103.393 79H98.1531V51.08H108.753C111.473 51.08 113.553 51.8533 114.993 53.4C116.433 54.9467 117.153 57.0533 117.153 59.72C117.153 61.7733 116.673 63.5067 115.713 64.92C114.78 66.3067 113.433 67.1867 111.673 67.56L117.633 79H111.873L106.553 68.16H103.393V79ZM107.673 64.08C109.086 64.08 110.1 63.8 110.713 63.24C111.326 62.6533 111.633 61.7333 111.633 60.48V58.96C111.633 57.7067 111.326 56.8 110.713 56.24C110.1 55.6533 109.086 55.36 107.673 55.36H103.393V64.08H107.673Z" fill="#406667"/>
</svg>
